<?xml version="1.0" standalone="no"?>
<!DOCTYPE svg PUBLIC "-//W3C//DTD SVG 20010904//EN"
 "http://www.w3.org/TR/2001/REC-SVG-20010904/DTD/svg10.dtd">
<svg version="1.0" xmlns="http://www.w3.org/2000/svg"
 width="736.000000pt" height="736.000000pt" viewBox="0 0 736.000000 736.000000"
 preserveAspectRatio="xMidYMid meet">
<metadata>
Created by potrace 1.14, written by Peter Selinger 2001-2017
</metadata>
<g transform="translate(0.000000,736.000000) scale(0.100000,-0.100000)"
fill="#000000" stroke="none">
<path d="M3408 7275 c-2 -1 -39 -5 -83 -9 -92 -8 -303 -34 -325 -41 -8 -3 -33
-7 -55 -11 -122 -18 -459 -112 -570 -159 -16 -7 -48 -18 -70 -25 -22 -7 -50
-19 -62 -27 -12 -8 -26 -15 -30 -15 -18 1 -274 -123 -378 -182 -33 -19 -75
-42 -92 -51 -18 -10 -33 -21 -33 -26 0 -5 -5 -9 -11 -9 -10 0 -146 -85 -159
-100 -3 -3 -27 -21 -55 -40 -27 -19 -55 -39 -62 -45 -14 -12 -22 -18 -83 -65
-57 -44 -102 -83 -158 -137 -24 -24 -46 -43 -48 -43 -6 0 -147 -145 -214 -221
-36 -40 -74 -83 -85 -94 -81 -85 -287 -386 -377 -550 -79 -142 -202 -402 -214
-450 -1 -5 -7 -23 -14 -40 -6 -16 -11 -31 -11 -33 1 -1 -6 -19 -15 -40 -13
-31 -40 -110 -50 -147 -2 -5 -15 -53 -29 -105 -27 -98 -31 -115 -60 -260 -24
-121 -30 -161 -41 -260 -2 -19 -6 -55 -10 -80 -13 -82 -16 -3461 -3 -3476 6
-8 9 -14 6 -14 -9 0 19 -77 51 -139 31 -64 138 -181 185 -205 17 -10 51 -27
73 -39 23 -12 47 -24 55 -25 8 -2 39 -10 70 -18 49 -13 299 -14 1765 -11 940
2 1723 6 1739 9 17 3 62 9 100 13 39 4 79 9 90 11 10 2 35 6 55 9 20 3 47 8
60 10 14 3 41 8 60 11 19 3 43 7 52 10 10 3 30 7 44 10 23 4 128 29 159 38 79
22 233 69 275 84 8 3 17 6 20 7 6 2 7 3 155 62 100 41 366 167 390 185 6 5 58
37 117 72 92 55 304 199 318 216 3 3 25 21 50 40 25 19 50 39 57 45 6 5 38 32
70 60 55 47 305 295 349 346 49 57 152 187 174 219 14 19 32 44 42 54 10 11
18 23 18 26 0 4 11 20 25 36 14 16 25 34 25 41 0 6 4 13 8 15 10 4 151 239
177 295 11 24 23 43 28 43 4 0 7 6 7 14 0 17 32 80 43 84 4 2 7 10 7 17 0 7
15 46 34 87 35 77 116 287 121 316 2 9 4 18 5 20 2 1 3 5 4 10 1 4 5 13 9 20
5 6 6 12 2 12 -3 0 -1 8 4 18 6 11 12 30 15 43 3 13 15 60 27 104 24 91 21 76
47 215 23 119 32 180 47 315 22 195 21 543 -1 725 -4 25 -8 63 -9 85 -2 22 -4
40 -5 40 -2 0 -9 36 -14 75 -3 19 -5 35 -6 35 -1 0 -3 11 -4 25 -2 14 -7 43
-11 65 -4 22 -9 47 -10 55 -1 8 -5 22 -8 30 -3 8 -15 56 -27 105 -20 85 -72
257 -90 300 -4 11 -13 36 -20 55 -17 50 -26 73 -86 210 -36 84 -161 327 -185
362 -11 14 -19 31 -19 37 0 6 -4 11 -9 11 -5 0 -12 8 -15 18 -9 25 -130 210
-146 222 -3 3 -20 25 -37 50 -105 153 -430 494 -583 611 -25 19 -49 39 -55 45
-14 16 -159 123 -230 169 -33 22 -61 43 -63 48 -2 4 -7 7 -11 7 -5 0 -50 26
-102 57 -89 53 -399 213 -414 213 -4 0 -33 11 -64 24 -71 31 -249 97 -276 102
-11 2 -31 8 -45 14 -35 14 -218 62 -281 74 -13 2 -35 7 -49 10 -14 3 -37 8
-53 10 -15 3 -35 7 -45 10 -9 3 -37 7 -62 10 -25 3 -54 8 -66 10 -11 2 -52 7
-90 11 -38 4 -82 9 -99 12 -32 5 -541 13 -547 8z"/>
</g>
</svg>
