<svg width="100" height="100" viewBox="0 0 100 100" fill="none" xmlns="http://www.w3.org/2000/svg">
<g opacity="0.2">
<path d="M45.3125 28.125V62.5C45.3069 67.4711 43.3296 72.237 39.8145 75.752C36.2995 79.2671 31.5336 81.2444 26.5625 81.25C25.7337 81.25 24.9388 80.9208 24.3528 80.3347C23.7667 79.7487 23.4375 78.9538 23.4375 78.125C23.4375 77.2962 23.7667 76.5013 24.3528 75.9153C24.9388 75.3292 25.7337 75 26.5625 75C29.8766 74.9963 33.0538 73.6781 35.3972 71.3347C37.7406 68.9913 39.0588 65.8141 39.0625 62.5V59.375H15.625C13.968 59.3731 12.3794 58.714 11.2077 57.5423C10.036 56.3706 9.3769 54.782 9.375 53.125V28.125C9.3769 26.468 10.036 24.8794 11.2077 23.7077C12.3794 22.536 13.968 21.8769 15.625 21.875H39.0625C40.7195 21.8769 42.3081 22.536 43.4798 23.7077C44.6515 24.8794 45.3106 26.468 45.3125 28.125ZM84.375 21.875H60.9375C59.2805 21.8769 57.6919 22.536 56.5202 23.7077C55.3485 24.8794 54.6894 26.468 54.6875 28.125V53.125C54.6894 54.782 55.3485 56.3706 56.5202 57.5423C57.6919 58.714 59.2805 59.3731 60.9375 59.375H84.375V62.5C84.3713 65.8141 83.0531 68.9913 80.7097 71.3347C78.3663 73.6781 75.1891 74.9963 71.875 75C71.0462 75 70.2513 75.3292 69.6653 75.9153C69.0792 76.5013 68.75 77.2962 68.75 78.125C68.75 78.9538 69.0792 79.7487 69.6653 80.3347C70.2513 80.9208 71.0462 81.25 71.875 81.25C76.8461 81.2444 81.612 79.2671 85.127 75.752C88.6421 72.237 90.6194 67.4711 90.625 62.5V28.125C90.6231 26.468 89.964 24.8794 88.7923 23.7077C87.6206 22.536 86.032 21.8769 84.375 21.875Z" fill="#3F53D8"/>
</g>
</svg>
