<svg width="27" height="26" viewBox="0 0 27 26" fill="none" xmlns="http://www.w3.org/2000/svg">
<path opacity="0.2" d="M26.1302 9.80055C26.0139 9.42306 25.7904 9.09058 25.4887 8.84648C25.1869 8.60238 24.8211 8.458 24.4388 8.43218L17.5263 7.93185L14.962 1.25364C14.8233 0.884432 14.5799 0.567196 14.2638 0.343496C13.9477 0.119796 13.5737 6.74844e-05 13.1906 0H13.1888C12.8065 0.000705435 12.4331 0.120739 12.1178 0.344405C11.8024 0.568071 11.5596 0.88496 11.4212 1.25364L8.81867 7.97041L1.94427 8.43218C1.56203 8.458 1.19619 8.60238 0.894481 8.84648C0.592773 9.09058 0.369205 9.42306 0.252949 9.80055C0.130305 10.1834 0.121962 10.5956 0.229005 10.9834C0.336049 11.3712 0.553518 11.7167 0.853095 11.9749L6.14166 16.5982L4.56855 22.998C4.46012 23.4291 4.48005 23.884 4.62576 24.3032C4.77145 24.7224 5.03612 25.0863 5.3851 25.3473C5.72205 25.6009 6.12498 25.7436 6.54146 25.757C6.95794 25.7705 7.36868 25.6539 7.72023 25.4226L13.1761 21.8479C13.1834 21.8422 13.1906 21.8385 13.207 21.8479L19.0775 25.6943C19.3962 25.9049 19.769 26.0112 20.147 25.9991C20.525 25.987 20.8907 25.8572 21.1962 25.6266C21.5124 25.3902 21.7523 25.0606 21.8843 24.6808C22.0165 24.3011 22.0346 23.889 21.9364 23.4984L20.2651 16.507L25.53 11.9749C25.8296 11.7167 26.0471 11.3712 26.1541 10.9834C26.2611 10.5956 26.2529 10.1834 26.1302 9.80055Z" fill="#3F53D8"/>
</svg>
