<svg width="44" height="44" viewBox="0 0 44 44" fill="none" xmlns="http://www.w3.org/2000/svg">
<path fill-rule="evenodd" clip-rule="evenodd" d="M13.439 3.66748H30.5605C36.7957 3.66748 40.3157 7.20398 40.334 13.4392V30.5625C40.334 36.7959 36.7957 40.3342 30.5605 40.3342H13.439C7.20386 40.3342 3.66736 36.7959 3.66736 30.5625V13.4392C3.66736 7.20398 7.20386 3.66748 13.439 3.66748ZM22.0905 32.7442C22.8807 32.7442 23.5389 32.1575 23.6122 31.3692V12.6875C23.6855 12.1192 23.4124 11.549 22.9174 11.2392C22.4022 10.9275 21.7789 10.9275 21.2857 11.2392C20.7889 11.549 20.5157 12.1192 20.5689 12.6875V31.3692C20.6624 32.1575 21.3205 32.7442 22.0905 32.7442ZM30.5257 32.7442C31.2957 32.7442 31.9539 32.1575 32.0474 31.3692V25.3559C32.1005 24.7674 31.8274 24.2192 31.3305 23.9075C30.8374 23.5959 30.214 23.5959 29.7007 23.9075C29.2039 24.2192 28.9307 24.7674 29.004 25.3559V31.3692C29.0774 32.1575 29.7355 32.7442 30.5257 32.7442ZM15.0689 31.3692C14.9955 32.1575 14.3374 32.7442 13.5472 32.7442C12.7589 32.7442 12.0989 32.1575 12.0274 31.3692V18.7009C11.9724 18.1307 12.2455 17.5642 12.7424 17.2525C13.2355 16.9409 13.8607 16.9409 14.3557 17.2525C14.8489 17.5642 15.1257 18.1307 15.0689 18.7009V31.3692Z" fill="#080829"/>
</svg>
