<svg width="44" height="44" viewBox="0 0 44 44" fill="none" xmlns="http://www.w3.org/2000/svg">
<path fill-rule="evenodd" clip-rule="evenodd" d="M31.4963 8.08508C31.4963 5.64675 33.4763 3.66675 35.9147 3.66675C38.353 3.66675 40.333 5.64675 40.333 8.08508C40.333 10.5235 38.353 12.5035 35.9147 12.5035C33.4763 12.5035 31.4963 10.5235 31.4963 8.08508ZM24.4378 27.0588L29.7361 20.2223L29.6628 20.259C29.9561 19.8557 30.0111 19.3423 29.8095 18.884C29.6096 18.4257 29.1678 18.114 28.693 18.0773C28.1961 18.0223 27.703 18.2423 27.4078 18.6457L22.973 24.384L17.8928 20.3873C17.5811 20.149 17.2145 20.0555 16.8478 20.094C16.483 20.149 16.153 20.3488 15.9311 20.6422L10.5063 27.7023L10.3945 27.8673C10.0828 28.4522 10.2295 29.2038 10.7795 29.609C11.0361 29.774 11.3111 29.884 11.6228 29.884C12.0463 29.9023 12.4478 29.6805 12.7045 29.334L17.3061 23.4105L22.5311 27.3357L22.6961 27.4438C23.2828 27.7555 24.0161 27.6107 24.4378 27.0588ZM28.3245 6.93063C28.2511 7.38896 28.2145 7.8473 28.2145 8.30563C28.2145 12.4307 31.5511 15.7655 35.6578 15.7655C36.1161 15.7655 36.5561 15.7123 37.0145 15.639V30.4322C37.0145 36.649 33.3478 40.334 27.1145 40.334H13.568C7.3328 40.334 3.66614 36.649 3.66614 30.4322V16.8673C3.66614 10.634 7.3328 6.93063 13.568 6.93063H28.3245Z" fill="#080829"/>
</svg>
