<svg width="44" height="44" viewBox="0 0 44 44" fill="none" xmlns="http://www.w3.org/2000/svg">
<path fill-rule="evenodd" clip-rule="evenodd" d="M24.6582 8.94706H30.2865C37.0515 8.94706 40.3515 12.5587 40.3332 19.9654V28.8937C40.3332 35.9704 35.9698 40.3337 28.8748 40.3337H15.1065C8.04817 40.3337 3.6665 35.9704 3.6665 28.8754V15.1071C3.6665 7.51706 7.03984 3.66706 13.6948 3.66706H16.5915C18.2983 3.64873 19.8915 4.43706 20.9365 5.77539L22.5498 7.92039C23.0632 8.56206 23.8332 8.94706 24.6582 8.94706ZM13.5115 28.0321H30.4882C31.2398 28.0321 31.8448 27.4087 31.8448 26.6571C31.8448 25.8871 31.2398 25.2821 30.4882 25.2821H13.5115C12.7415 25.2821 12.1365 25.8871 12.1365 26.6571C12.1365 27.4087 12.7415 28.0321 13.5115 28.0321Z" fill="#080829"/>
</svg>
