<svg width="44" height="44" viewBox="0 0 44 44" fill="none" xmlns="http://www.w3.org/2000/svg">
<path d="M39.2983 4.73372C38.3812 3.79251 37.024 3.44187 35.7585 3.81097L6.24808 12.3926C4.91286 12.7635 3.96647 13.8284 3.71154 15.1811C3.4511 16.5579 4.3608 18.3056 5.54929 19.0364L14.7766 24.7076C15.723 25.2889 16.9445 25.1431 17.7276 24.3533L28.2938 13.7213C28.8257 13.1677 29.706 13.1677 30.2379 13.7213C30.7698 14.2565 30.7698 15.1239 30.2379 15.6776L19.6534 26.3113C18.8684 27.0994 18.7217 28.3266 19.2994 29.2789L24.9374 38.5987C25.5977 39.706 26.7348 40.3335 27.982 40.3335C28.1287 40.3335 28.2938 40.3335 28.4405 40.315C29.8711 40.1304 31.0082 39.1523 31.4301 37.7682L40.1786 8.29553C40.5638 7.04059 40.2153 5.67492 39.2983 4.73372Z" fill="#080829"/>
</svg>
