<svg width="44" height="44" viewBox="0 0 44 44" fill="none" xmlns="http://www.w3.org/2000/svg">
<path fill-rule="evenodd" clip-rule="evenodd" d="M34.2963 16.1266C34.2963 18.4291 34.9048 19.7863 36.2441 21.3502C37.259 22.5024 37.5833 23.9814 37.5833 25.586C37.5833 27.1887 37.0567 28.7102 36.0017 29.9455C34.6206 31.4264 32.6728 32.3718 30.6849 32.5361C27.8042 32.7817 24.9217 32.9885 22.0009 32.9885C19.0783 32.9885 16.1975 32.8648 13.3168 32.5361C11.3271 32.3718 9.37933 31.4264 8.00001 29.9455C6.94503 28.7102 6.41663 27.1887 6.41663 25.586C6.41663 23.9814 6.74278 22.5024 7.75585 21.3502C9.13699 19.7863 9.70548 18.4291 9.70548 16.1266V15.3455C9.70548 12.2619 10.4744 10.2456 12.0578 8.27171C14.4119 5.39307 18.1854 3.66663 21.9189 3.66663H22.0829C25.8965 3.66663 29.7921 5.47616 32.1061 8.47851C33.6075 10.4118 34.2963 12.3432 34.2963 15.3455V16.1266ZM16.635 36.7782C16.635 35.8549 17.4823 35.4321 18.2658 35.2511C19.1823 35.0573 24.767 35.0573 25.6835 35.2511C26.467 35.4321 27.3142 35.8549 27.3142 36.7782C27.2687 37.6571 26.753 38.4363 26.0406 38.9311C25.1168 39.6513 24.0327 40.1073 22.8993 40.2717C22.2725 40.3529 21.6567 40.3548 21.0518 40.2717C19.9166 40.1073 18.8325 39.6513 17.9105 38.9293C17.1962 38.4363 16.6806 37.6571 16.635 36.7782Z" fill="#080829"/>
</svg>
