<svg width="44" height="44" viewBox="0 0 44 44" fill="none" xmlns="http://www.w3.org/2000/svg">
<path fill-rule="evenodd" clip-rule="evenodd" d="M29.058 4.58464C30.2148 4.58464 31.3698 4.74781 32.468 5.11631C39.2348 7.31631 41.6731 14.7413 39.6363 21.2313C38.4813 24.5478 36.593 27.5746 34.1198 30.0478C30.5796 33.4761 26.6948 36.5195 22.513 39.1411L22.0546 39.418L21.578 39.1228C17.3815 36.5195 13.4746 33.4761 9.90146 30.0295C7.44479 27.5563 5.55462 24.5478 4.38129 21.2313C2.30962 14.7413 4.74796 7.31631 11.5881 5.07781C12.1198 4.89448 12.668 4.76614 13.218 4.69464H13.438C13.9531 4.61948 14.4646 4.58464 14.978 4.58464H15.1796C16.3346 4.61948 17.453 4.82114 18.5365 5.18964H18.6446C18.718 5.22448 18.773 5.26298 18.8096 5.29781C19.2148 5.42798 19.598 5.57464 19.9646 5.77631L20.6613 6.08798C20.8296 6.17776 21.0186 6.31495 21.1819 6.43351C21.2854 6.50863 21.3785 6.57627 21.4496 6.61964C21.4795 6.63729 21.5099 6.65504 21.5406 6.67293C21.6978 6.7647 21.8615 6.86028 21.9996 6.96614C24.0365 5.40964 26.5096 4.56631 29.058 4.58464ZM33.9346 17.7846C34.6863 17.7645 35.328 17.1613 35.383 16.3895V16.1713C35.438 13.6028 33.8815 11.2763 31.5146 10.378C30.763 10.1195 29.938 10.5246 29.663 11.2946C29.4063 12.0646 29.8096 12.908 30.5796 13.1811C31.7548 13.6211 32.5413 14.778 32.5413 16.0595V16.1163C32.5065 16.5361 32.633 16.9413 32.8896 17.253C33.1463 17.5646 33.5313 17.7461 33.9346 17.7846Z" fill="#080829"/>
</svg>
