<svg width="44" height="44" viewBox="0 0 44 44" fill="none" xmlns="http://www.w3.org/2000/svg">
<path fill-rule="evenodd" clip-rule="evenodd" d="M32.5763 15.3666H40.3333C40.3333 9.13842 36.6014 5.5 30.2785 5.5H13.7214C7.39848 5.5 3.66663 9.13842 3.66663 15.2872V28.7128C3.66663 34.8616 7.39848 38.5 13.7214 38.5H30.2785C36.6014 38.5 40.3333 34.8616 40.3333 28.7128V28.1408H32.5763C28.9762 28.1408 26.0577 25.2955 26.0577 21.7855C26.0577 18.2756 28.9762 15.4302 32.5763 15.4302V15.3666ZM32.5763 18.0994H38.9644C39.7204 18.0994 40.3333 18.697 40.3333 19.434V24.0734C40.3245 24.8069 39.7167 25.3995 38.9644 25.408H32.7229C30.9004 25.4319 29.3067 24.2153 28.8933 22.4846C28.6863 21.4102 28.9769 20.3015 29.6873 19.4557C30.3976 18.6099 31.4551 18.1135 32.5763 18.0994ZM32.8533 22.9771H33.4563C34.2303 22.9771 34.8577 22.3654 34.8577 21.6107C34.8577 20.8561 34.2303 20.2443 33.4563 20.2443H32.8533C32.4831 20.2401 32.1266 20.3805 31.8633 20.6342C31.6 20.888 31.4518 21.2339 31.4518 21.5948C31.4518 22.3521 32.0766 22.9684 32.8533 22.9771ZM12.3526 15.3666H22.7007C23.4747 15.3666 24.1022 14.7549 24.1022 14.0002C24.1022 13.2456 23.4747 12.6338 22.7007 12.6338H12.3526C11.5849 12.6338 10.96 13.2359 10.9511 13.9844C10.951 14.7416 11.5759 15.3579 12.3526 15.3666Z" fill="#080829"/>
</svg>
