<svg width="44" height="44" viewBox="0 0 44 44" fill="none" xmlns="http://www.w3.org/2000/svg">
<path fill-rule="evenodd" clip-rule="evenodd" d="M29.6235 15.0936C29.6235 19.4014 26.1893 22.8555 21.9065 22.8555C17.6236 22.8555 14.1894 19.4014 14.1894 15.0936C14.1894 10.7842 17.6236 7.33337 21.9065 7.33337C26.1893 7.33337 29.6235 10.7842 29.6235 15.0936ZM21.9065 36.6667C15.616 36.6667 10.2447 35.6694 10.2447 31.6803C10.2447 27.6896 15.5815 26.656 21.9065 26.656C28.197 26.656 33.5682 27.6533 33.5682 31.644C33.5682 35.6331 28.2314 36.6667 21.9065 36.6667ZM32.9213 15.2336C32.9213 17.4296 32.2663 19.4753 31.1172 21.176C30.999 21.351 31.104 21.5871 31.3125 21.6234C31.5998 21.673 31.8969 21.701 32.199 21.7093C35.2112 21.7885 37.9149 19.8386 38.6618 16.9029C39.7682 12.5423 36.5196 8.62752 32.3828 8.62752C31.933 8.62752 31.5029 8.6754 31.0843 8.76126C31.0269 8.77446 30.9661 8.80088 30.9333 8.85207C30.8939 8.91481 30.9235 8.99902 30.9629 9.0535C32.2055 10.8053 32.9213 12.9419 32.9213 15.2336ZM37.91 24.7731C39.934 25.171 41.2654 25.9833 41.8169 27.1639C42.2831 28.1331 42.2831 29.2575 41.8169 30.2251C40.9732 32.0561 38.2531 32.6439 37.1959 32.7958C36.9776 32.8289 36.8019 32.639 36.8249 32.4194C37.365 27.3455 33.069 24.9398 31.9577 24.3867C31.91 24.362 31.9002 24.324 31.9051 24.3009C31.9084 24.2844 31.9281 24.2579 31.9642 24.253C34.3691 24.2084 36.9546 24.5386 37.91 24.7731ZM11.8013 21.7091C12.1033 21.7009 12.3988 21.6744 12.6877 21.6233C12.8962 21.5869 13.0013 21.3508 12.8831 21.1758C11.734 19.4752 11.079 17.4294 11.079 15.2335C11.079 12.9417 11.7947 10.8052 13.0374 9.05334C13.0768 8.99885 13.1047 8.91464 13.0669 8.8519C13.0341 8.80237 12.9717 8.7743 12.9159 8.76109C12.4957 8.67523 12.0656 8.62735 11.6158 8.62735C7.47903 8.62735 4.23036 12.5421 5.33842 16.9027C6.08533 19.8384 8.789 21.7884 11.8013 21.7091ZM12.0943 24.2999C12.0992 24.3246 12.0894 24.361 12.0434 24.3874C10.9304 24.9405 6.63444 27.3462 7.17452 32.4184C7.1975 32.6396 7.02349 32.8279 6.80516 32.7965C5.74799 32.6446 3.02791 32.0568 2.18414 30.2257C1.71629 29.2565 1.71629 28.1338 2.18414 27.1646C2.73571 25.984 4.06538 25.1717 6.08944 24.7721C7.04647 24.5393 9.63031 24.2091 12.0369 24.2536C12.073 24.2586 12.091 24.285 12.0943 24.2999Z" fill="#080829"/>
</svg>
